<svg xmlns="http://www.w3.org/2000/svg" viewBox="0 0 400 400" preserveAspectRatio="xMidYMid meet" width="200" height="200"><defs><clipPath id="__lottie_element_2"><rect width="400" height="400" x="0" y="0"></rect></clipPath></defs><g clip-path="url(#__lottie_element_2)"><g class="focus_square" transform="matrix(1,0,0,1,194,205)" opacity="1" style="display: block;"><rect width="11" height="11" fill="#000000"></rect></g><g transform="matrix(1.440000057220459,0,0,1.440000057220459,151.19891357421875,161.87911987304688)" opacity="1" style="display: block;"><g opacity="1" transform="matrix(1,0,0,1,22.722999572753906,25.902000427246094)"><path fill="rgb(255,255,255)" fill-opacity="1" d=" M8.972999572753906,11.911999702453613 C8.972999572753906,11.911999702453613 -9.178000450134277,11.911999702453613 -9.178000450134277,11.911999702453613 C-9.178000450134277,11.911999702453613 -13.381999969482422,24.660999298095703 -13.381999969482422,24.660999298095703 C-13.381999969482422,24.660999298095703 -22.472999572753906,24.660999298095703 -22.472999572753906,24.660999298095703 C-22.472999572753906,24.660999298095703 -4.9730000495910645,-24.660999298095703 -4.9730000495910645,-24.660999298095703 C-4.9730000495910645,-24.660999298095703 4.973999977111816,-24.660999298095703 4.973999977111816,-24.660999298095703 C4.973999977111816,-24.660999298095703 22.472999572753906,24.660999298095703 22.472999572753906,24.660999298095703 C22.472999572753906,24.660999298095703 13.175999641418457,24.660999298095703 13.175999641418457,24.660999298095703 C13.175999641418457,24.660999298095703 8.972999572753906,11.911999702453613 8.972999572753906,11.911999702453613z M-7.125999927520752,5.110000133514404 C-7.125999927520752,5.110000133514404 6.888000011444092,5.110000133514404 6.888000011444092,5.110000133514404 C6.888000011444092,5.110000133514404 0.017999999225139618,-15.944999694824219 0.017999999225139618,-15.944999694824219 C0.017999999225139618,-15.944999694824219 -0.22300000488758087,-15.944999694824219 -0.22300000488758087,-15.944999694824219 C-0.22300000488758087,-15.944999694824219 -7.125999927520752,5.110000133514404 -7.125999927520752,5.110000133514404z"></path></g><g opacity="1" transform="matrix(1,0,0,1,56.35499954223633,25.902000427246094)"><path fill="rgb(255,255,255)" fill-opacity="1" d=" M2.1530001163482666,-16.253000259399414 C2.1530001163482666,-16.253000259399414 1.9479999542236328,-16.253000259399414 1.9479999542236328,-16.253000259399414 C1.9479999542236328,-16.253000259399414 -10.800999641418457,-7.502999782562256 -10.800999641418457,-7.502999782562256 C-10.800999641418457,-7.502999782562256 -10.800999641418457,-15.604000091552734 -10.800999641418457,-15.604000091552734 C-10.800999641418457,-15.604000091552734 2.0850000381469727,-24.65999984741211 2.0850000381469727,-24.65999984741211 C2.0850000381469727,-24.65999984741211 10.800999641418457,-24.65999984741211 10.800999641418457,-24.65999984741211 C10.800999641418457,-24.65999984741211 10.800999641418457,24.65999984741211 10.800999641418457,24.65999984741211 C10.800999641418457,24.65999984741211 2.1530001163482666,24.65999984741211 2.1530001163482666,24.65999984741211 C2.1530001163482666,24.65999984741211 2.1530001163482666,-16.253000259399414 2.1530001163482666,-16.253000259399414z"></path></g><g opacity="1" transform="matrix(1,0,0,1,95.55599975585938,25.902000427246094)"><path fill="rgb(255,255,255)" fill-opacity="1" d=" M-6.4079999923706055,-4.015999794006348 C-6.4079999923706055,-4.015999794006348 -0.7689999938011169,-4.015999794006348 -0.7689999938011169,-4.015999794006348 C4.665999889373779,-4.015999794006348 8.288999557495117,-7.125999927520752 8.288999557495117,-11.50100040435791 C8.288999557495117,-15.842000007629395 5.418000221252441,-18.645000457763672 -0.017000000923871994,-18.645000457763672 C-5.2129998207092285,-18.645000457763672 -8.937000274658203,-15.87600040435791 -9.246000289916992,-11.227999687194824 C-9.246000289916992,-11.227999687194824 -17.448999404907227,-11.227999687194824 -17.448999404907227,-11.227999687194824 C-16.867000579833984,-20.04599952697754 -9.928999900817871,-25.652000427246094 -0.017000000923871994,-25.652000427246094 C10.20300006866455,-25.652000427246094 16.766000747680664,-20.31999969482422 16.766000747680664,-12.697999954223633 C16.766000747680664,-6.4770002365112305 12.355999946594238,-2.375 6.4079999923706055,-1.1449999809265137 C6.4079999923706055,-1.1449999809265137 6.4079999923706055,-0.9739999771118164 6.4079999923706055,-0.9739999771118164 C13.6899995803833,-0.28999999165534973 18.507999420166016,4.085000038146973 18.507999420166016,10.954999923706055 C18.507999420166016,19.704999923706055 10.85200023651123,25.652000427246094 0.050999999046325684,25.652000427246094 C-10.75,25.652000427246094 -18.06399917602539,19.73900032043457 -18.507999420166016,11.02299976348877 C-18.507999420166016,11.02299976348877 -10.065999984741211,11.02299976348877 -10.065999984741211,11.02299976348877 C-9.723999977111816,15.50100040435791 -5.793000221252441,18.440000534057617 0.050999999046325684,18.440000534057617 C5.691999912261963,18.440000534057617 9.553000450134277,15.26099967956543 9.553000450134277,10.75 C9.588000297546387,5.486000061035156 5.760000228881836,2.5460000038146973 -0.5640000104904175,2.5460000038146973 C-0.5640000104904175,2.5460000038146973 -6.4079999923706055,2.5460000038146973 -6.4079999923706055,2.5460000038146973 C-6.4079999923706055,2.5460000038146973 -6.4079999923706055,-4.015999794006348 -6.4079999923706055,-4.015999794006348z"></path></g></g><g transform="matrix(0,0,0,0,201.2760009765625,188.61000061035156)" opacity="1" style="display: none;"><g opacity="1" transform="matrix(1,0,0,1,0,0)"><path fill="rgb(0,0,0)" fill-opacity="1" d=" M-303.5,-108.5 C-303.5,-108.5 -275,64.5 -275,64.5 C-275,64.5 -90.625,40.75 -90.625,40.75 C-90.625,40.75 -69.00299835205078,25.875 -65.5,10.125 C-67.12799835205078,7.625 -77.25,6.5 -77.75,-9.5 C-78.25,-25.5 -68.125,-27.5 -68.125,-27.5 C-68.125,-27.5 -85,-41.25 -85,-41.25 C-85,-41.25 -68.5,-104 -68.5,-104 C-68.5,-104 -303.5,-108.5 -303.5,-108.5z"></path></g></g><g transform="matrix(1.440000057220459,0,0,1.440000057220459,59.950401306152344,142.1699981689453)" opacity="1" style="display: block;"><g opacity="1" transform="matrix(1,0,0,1,33.724998474121094,7.640999794006348)"><path fill="rgb(255,255,255)" fill-opacity="1" d=" M3.1480000019073486,2.309000015258789 C7.317999839782715,-2.450000047683716 6.448999881744385,-7.390999794006348 6.448999881744385,-7.390999794006348 C6.448999881744385,-7.390999794006348 0.6129999756813049,-7.366000175476074 -3.5850000381469727,-2.1110000610351562 C-7.317999839782715,2.561000108718872 -6.368000030517578,6.559000015258789 -6.368000030517578,6.559000015258789 C-6.368000030517578,6.559000015258789 -1.3049999475479126,7.390999794006348 3.1480000019073486,2.309000015258789z"></path></g><g opacity="1" transform="matrix(1,0,0,1,26.614999771118164,39.486000061035156)"><path fill="rgb(255,255,255)" fill-opacity="1" d=" M17.652000427246094,-5.888000011444092 C17.652000427246094,-14.63700008392334 24.645999908447266,-18.242000579833984 24.645999908447266,-18.242000579833984 C24.645999908447266,-18.242000579833984 21.06999969482422,-24.763999938964844 11.979000091552734,-24.763999938964844 C6.697000026702881,-24.763999938964844 2.638000011444092,-21.733999252319336 0.4519999921321869,-21.733999252319336 C-2.0950000286102295,-21.733999252319336 -5.896999835968018,-24.582000732421875 -10.795999526977539,-24.582000732421875 C-18.33099937438965,-24.582000732421875 -26.364999771118164,-17.780000686645508 -26.364999771118164,-4.813000202178955 C-26.364999771118164,8.368000030517578 -16.874000549316406,24.763999938964844 -9.361000061035156,24.763999938964844 C-6.73799991607666,24.763999938964844 -2.7100000381469727,22.10099983215332 1.3480000495910645,22.10099983215332 C5.329999923706055,22.10099983215332 8.265999794006348,24.66900062561035 12.045999526977539,24.66900062561035 C20.27400016784668,24.66900062561035 26.364999771118164,7.382999897003174 26.364999771118164,7.382999897003174 C26.364999771118164,7.382999897003174 17.652000427246094,3.9820001125335693 17.652000427246094,-5.888000011444092z"></path></g></g><g transform="matrix(1.440000057220459,0,0,1.440000057220459,19.6299991607666,19.768999099731445)" opacity="1" style="display: block;"><g opacity="1" transform="matrix(1,0,0,1,125.25,125.25)"><path fill="rgb(255,255,255)" fill-opacity="1" d=" M100,-125 C100,-125 -100,-125 -100,-125 C-113.80699920654297,-125 -125,-113.80699920654297 -125,-100 C-125,-100 -125,100 -125,100 C-125,113.80699920654297 -113.80699920654297,125 -100,125 C-100,125 100,125 100,125 C113.80699920654297,125 125,113.80699920654297 125,100 C125,100 125,-100 125,-100 C125,-113.80699920654297 113.80699920654297,-125 100,-125z M117,99.85299682617188 C117,109.322998046875 109.3219985961914,117 99.85299682617188,117 C99.85299682617188,117 -99.85199737548828,117 -99.85199737548828,117 C-109.322998046875,117 -117,109.322998046875 -117,99.85299682617188 C-117,99.85299682617188 -117,-99.85199737548828 -117,-99.85199737548828 C-117,-109.3219985961914 -109.322998046875,-117 -99.85199737548828,-117 C-99.85199737548828,-117 99.85299682617188,-117 99.85299682617188,-117 C109.3219985961914,-117 117,-109.3219985961914 117,-99.85199737548828 C117,-99.85199737548828 117,99.85299682617188 117,99.85299682617188z"></path></g></g></g></svg>